<?xml version="1.0" encoding="utf-8"?>
<!-- Generator: Adobe Illustrator 21.0.0, SVG Export Plug-In . SVG Version: 6.00 Build 0)  -->
<svg version="1.1" id="Layer_1" xmlns:ooo="http://xml.openoffice.org/svg/export"
	 xmlns="http://www.w3.org/2000/svg" xmlns:xlink="http://www.w3.org/1999/xlink" x="0px" y="0px" viewBox="0 0 566.9 566.9"
	 style="enable-background:new 0 0 566.9 566.9;" xml:space="preserve">
<style type="text/css">
	.st0{fill:#FFFFFF;}
</style>
<g>
	<g>
		<g>
			<g id="id1">
				<g>
					<g>
						<g id="id3">
							<path class="st0" d="M431.9,343.8c-11.6-15.8-24-28.7-24-58.3v-97.9c0-41.5,3-79.6-27.9-108.1
								c-24.3-23.2-64.7-31.3-95.6-31.3c-60.5,0-127.9,22.3-142.1,96.3c-1.5,7.9,4.3,12,9.5,13.1l61.6,6.6c5.8-0.3,9.9-5.9,11-11.5
								c5.3-25.5,26.9-37.7,51.1-37.7c13.1,0,27.9,4.7,35.6,16.3c8.9,12.9,7.7,30.6,7.7,45.6v8.2c-36.9,4.1-85,6.8-119.5,21.7
								c-39.8,17-67.7,51.7-67.7,102.7c0,65.4,41.6,98,95.1,98c45.2,0,69.9-10.6,104.7-45.7c11.6,16.6,15.4,24.5,36.4,41.9
								c4.7,2.5,10.8,2.3,15-1.5l0,0l0.1,0.1c12.7-11.1,35.7-31,48.7-41.7C436.9,356.3,436,349.5,431.9,343.8z M306.9,315.6
								c-10.1,17.7-26.1,28.6-44,28.6c-24.3,0-38.6-18.4-38.6-45.6c0-53.5,48.6-63.2,94.5-63.2v13.5h0
								C318.8,273.4,319.4,293.8,306.9,315.6z"/>
						</g>
					</g>
					<g>
						<g id="id4">
							<path class="st0" d="M507.9,450.6c-60.8,44.9-149,68.8-225,68.8C176.5,519.4,80.6,480,8.1,414.6c-5.7-5.2-0.6-12.2,6.2-8.2
								c78.3,45.6,175,73,275,73c67.4,0,141.5-14,209.7-42.9C509.3,432.1,517.9,443.2,507.9,450.6z"/>
						</g>
					</g>
					<g>
						<g id="id5">
							<path class="st0" d="M533.2,421.7c-7.8-9.9-51.4-4.7-71-2.3c-6,0.7-6.9-4.5-1.5-8.3c34.8-24.5,91.9-17.4,98.5-9.2
								c6.7,8.3-1.8,65.5-34.4,92.8c-5,4.2-9.8,2-7.6-3.6C524.5,472.8,541,431.7,533.2,421.7z"/>
						</g>
					</g>
				</g>
			</g>
		</g>
	</g>
</g>
</svg>
