<?xml version="1.0" encoding="utf-8"?>
<!-- Generator: Adobe Illustrator 21.0.0, SVG Export Plug-In . SVG Version: 6.00 Build 0)  -->
<svg version="1.1" id="Layer_1" xmlns:ooo="http://xml.openoffice.org/svg/export"
	 xmlns="http://www.w3.org/2000/svg" xmlns:xlink="http://www.w3.org/1999/xlink" x="0px" y="0px" viewBox="0 0 566.9 566.9"
	 style="enable-background:new 0 0 566.9 566.9;" xml:space="preserve">
<style type="text/css">
	.st0{fill:#FFFFFF;}
</style>
<g>
	<g>
		<g>
			<g id="id1">
				<g>
					<g>
						<g id="id3">
							<path class="st0" d="M293.6,553.4c-66,0-126.4-24-173.1-63.9L5.7,505.2l44.4-109.5c-15.5-34.1-24.1-72-24.1-111.9
								c0-149,119.8-269.7,267.7-269.7c147.8,0,267.6,120.7,267.6,269.7C561.3,432.7,441.4,553.4,293.6,553.4z M439.7,283v-0.8
								c0-77.8-54.9-133.3-149.5-133.3H187.9v269.7h100.7C384,418.6,439.7,360.8,439.7,283z M291.3,352.4h-29.9V215.2h29.9
								c43.8,0,73,25,73,68.3v0.7C364.4,327.8,335.2,352.4,291.3,352.4z"/>
						</g>
					</g>
				</g>
			</g>
		</g>
	</g>
</g>
</svg>
