<?xml version="1.0" encoding="utf-8"?>
<!-- Generator: Adobe Illustrator 21.0.0, SVG Export Plug-In . SVG Version: 6.00 Build 0)  -->
<svg version="1.1" id="Layer_1" xmlns:ooo="http://xml.openoffice.org/svg/export"
	 xmlns="http://www.w3.org/2000/svg" xmlns:xlink="http://www.w3.org/1999/xlink" x="0px" y="0px" viewBox="0 0 566.9 566.9"
	 style="enable-background:new 0 0 566.9 566.9;" xml:space="preserve">
<style type="text/css">
	.st0{fill:#FFFFFF;}
</style>
<g>
	<g id="id2">
		<g id="bg-id2">
		</g>
		<g id="bo-id2">
		</g>
	</g>
</g>
<g>
	<g>
		<g>
			<g id="id1">
				<g>
					<g>
						<g id="id3">
							<path class="st0" d="M486.4,5.7H80.5C39.2,5.7,5.7,39.2,5.7,80.5v405.9c0,41.4,33.5,74.9,74.9,74.9h200.2l0.4-198.5h-51.6
								c-6.7,0-12.2-5.4-12.2-12.1l-0.2-64c0-6.7,5.4-12.2,12.2-12.2h51.5v-61.8c0-71.8,43.9-110.8,107.9-110.8h52.5
								c6.7,0,12.2,5.4,12.2,12.2v54c0,6.7-5.4,12.2-12.2,12.2l-32.2,0c-34.8,0-41.6,16.6-41.6,40.8v53.5h76.5
								c7.3,0,13,6.4,12.1,13.6l-7.6,64c-0.7,6.1-5.9,10.7-12.1,10.7h-68.6l-0.3,198.5h119.1c41.4,0,74.9-33.5,74.9-74.9V80.5
								C561.3,39.2,527.8,5.7,486.4,5.7z"/>
						</g>
					</g>
				</g>
			</g>
		</g>
	</g>
</g>
</svg>
