<?xml version="1.0" encoding="utf-8"?>
<!-- Generator: Adobe Illustrator 21.0.0, SVG Export Plug-In . SVG Version: 6.00 Build 0)  -->
<svg version="1.1" id="Layer_1" xmlns:ooo="http://xml.openoffice.org/svg/export"
	 xmlns="http://www.w3.org/2000/svg" xmlns:xlink="http://www.w3.org/1999/xlink" x="0px" y="0px" viewBox="0 0 566.9 566.9"
	 style="enable-background:new 0 0 566.9 566.9;" xml:space="preserve">
<style type="text/css">
	.st0{fill:#FFFFFF;}
</style>
<g>
	<g>
		<g>
			<g id="id1">
				<g>
					<g>
						<g id="id4">
							<path class="st0" d="M555.8,289.6c0-22.8-1.8-39.5-5.8-56.8H289.1v103.1h153.1c-3.1,25.6-19.8,64.2-56.8,90.1l-0.6,3.4
								l82.5,63.9l5.7,0.6C525.6,445.5,555.8,374.2,555.8,289.6z"/>
						</g>
					</g>
					<g>
						<g id="id5">
							<path class="st0" d="M289.1,561.3c74.9,0,138-24.7,183.9-67.3L385.5,426c-23.5,16.3-55,27.8-96.3,27.8
								c-73.5,0-135.8-48.4-158.1-115.5l-3.3,0.3L42.1,405l-1.1,3.1C86.6,498.9,180.5,561.3,289.1,561.3z"/>
						</g>
					</g>
					<g>
						<g id="id6">
							<path class="st0" d="M131.1,338.4c-5.8-17.2-9.2-35.7-9.2-54.9c0-19.1,3.4-37.6,8.9-54.9l-0.1-3.7l-86.9-67.4l-2.9,1.3
								c-18.8,37.7-29.6,80-29.6,124.7S22.1,370.5,41,408.2L131.1,338.4z"/>
						</g>
					</g>
					<g>
						<g id="id7">
							<path class="st0" d="M289.1,113.1c52.2,0,87.3,22.6,107.4,41.4l78.4-76.5C426.8,33.2,364.1,5.7,289.1,5.7
								C180.5,5.7,86.6,68,41,158.8l89.8,69.8C153.3,161.6,215.7,113.1,289.1,113.1z"/>
						</g>
					</g>
				</g>
			</g>
		</g>
	</g>
</g>
</svg>
