<?xml version="1.0" encoding="utf-8"?>
<!-- Generator: Adobe Illustrator 21.0.0, SVG Export Plug-In . SVG Version: 6.00 Build 0)  -->
<svg version="1.1"
	 id="svg3520" inkscape:version="0.91 r13725" sodipodi:docname="instagram.svg" xmlns:cc="http://creativecommons.org/ns#" xmlns:dc="http://purl.org/dc/elements/1.1/" xmlns:inkscape="http://www.inkscape.org/namespaces/inkscape" xmlns:ooo="http://xml.openoffice.org/svg/export" xmlns:rdf="http://www.w3.org/1999/02/22-rdf-syntax-ns#" xmlns:sodipodi="http://sodipodi.sourceforge.net/DTD/sodipodi-0.dtd" xmlns:svg="http://www.w3.org/2000/svg"
	 xmlns="http://www.w3.org/2000/svg" xmlns:xlink="http://www.w3.org/1999/xlink" x="0px" y="0px" viewBox="0 0 566.9 566.9"
	 style="enable-background:new 0 0 566.9 566.9;" xml:space="preserve">
<style type="text/css">
	.st0{fill:#FFFFFF;}
</style>
<sodipodi:namedview  bordercolor="#666666" borderopacity="1" gridtolerance="10" guidetolerance="10" id="namedview3589" inkscape:current-layer="svg3520" inkscape:cx="354.33071" inkscape:cy="354.33071" inkscape:document-units="mm" inkscape:pageopacity="0" inkscape:pageshadow="2" inkscape:window-height="723" inkscape:window-maximized="1" inkscape:window-width="1362" inkscape:window-x="4" inkscape:window-y="1" inkscape:zoom="0.78598889" objecttolerance="10" pagecolor="#ffffff" showgrid="false">
	</sodipodi:namedview>
<g id="g3562">
	<g id="id2">
		<g id="bg-id2">
		</g>
		<g id="bo-id2">
		</g>
	</g>
</g>
<g id="g3567" transform="matrix(1,0,0,1.0005615,0,-1.1130521)">
	<g id="g3569">
		<g>
			<g id="id1">
				<g id="g3572">
					<g id="g3574">
						<g id="id3">
							<path id="path3577" inkscape:connector-curvature="0" class="st0" d="M283.5,56.8c74.2,0,82.9,0.3,112.3,1.6
								c27.1,1.2,41.8,5.8,51.6,9.6c4.8,1.8,8.8,3.6,13.2,6.2c7.3,4.2,12.9,8.6,18.7,14.6c6,5.8,10.4,11.5,14.6,18.7
								c2.6,4.5,4.4,8.4,6.2,13.2c3.8,9.8,8.3,24.5,9.5,51.6c1.4,29.3,1.6,38,1.6,112.2c0,74.1-0.3,82.9-1.6,112.2
								c-1.2,27-5.8,41.8-9.5,51.6c-1.8,4.7-3.7,8.5-6.2,12.9c-8.4,14.7-19,25.2-33.6,33.7c-4.4,2.5-8.2,4.3-12.9,6.2
								c-9.8,3.8-24.5,8.3-51.6,9.6c-29.3,1.3-38.1,1.6-112.3,1.6s-83-0.3-112.3-1.6c-27.1-1.2-41.8-5.8-51.6-9.6
								c-4.8-1.8-8.8-3.6-13.2-6.2c-7.3-4.2-12.9-8.6-18.7-14.6c-6-5.8-10.4-11.5-14.6-18.7c-2.6-4.5-4.4-8.4-6.2-13.2
								c-3.8-9.8-8.3-24.5-9.6-51.6c-1.4-29.3-1.6-38.1-1.6-112.2c0-74.2,0.3-82.9,1.6-112.2c1.2-27.1,5.8-41.8,9.6-51.6
								c1.8-4.8,3.6-8.8,6.2-13.2c4.2-7.3,8.6-12.9,14.6-18.7c5.8-6,11.5-10.4,18.7-14.6c4.4-2.6,8.4-4.4,13.2-6.2
								c9.8-3.8,24.5-8.3,51.6-9.6C200.5,57.1,209.3,56.8,283.5,56.8z M283.5,6.8c-75.5,0-84.9,0.3-114.5,1.7
								c-29.6,1.3-49.7,6-67.4,12.9c-7.3,2.7-13.4,5.6-20.1,9.5c-11.3,6.5-20,13.3-29.1,22.5c-9.2,9.1-16,17.8-22.5,29.1
								c-3.9,6.8-6.7,12.8-9.5,20.1C13.4,120.2,8.7,140.4,7.3,170C6,199.6,5.7,209,5.7,284.4S6,369.3,7.3,398.9
								c1.4,29.5,6,49.7,12.9,67.4c2.7,7.3,5.6,13.3,9.5,20.1c6.5,11.2,13.2,20,22.5,29.1c9.1,9.2,17.8,16,29.1,22.5
								c6.8,3.9,12.8,6.7,20.1,9.5c17.7,6.9,37.8,11.6,67.4,12.9c29.7,1.4,39.1,1.7,114.5,1.7s84.9-0.3,114.5-1.7
								c29.6-1.3,49.7-6,67.4-12.9c7.2-2.8,13.1-5.6,19.8-9.4c22.6-13.1,38.9-29.4,52-52c3.9-6.7,6.7-12.6,9.5-19.8
								c6.9-17.7,11.6-37.9,12.9-67.4c1.4-29.6,1.7-39.1,1.7-114.5c0-75.4-0.3-84.9-1.7-114.5c-1.3-29.6-6-49.7-12.9-67.4
								c-2.8-7.3-5.6-13.4-9.5-20.1c-6.5-11.2-13.3-20-22.5-29.1c-9.1-9.2-17.9-16-29.1-22.5c-6.8-3.9-12.8-6.7-20.1-9.5
								C447.8,14.5,427.5,9.8,398,8.5C368.4,7.1,358.9,6.8,283.5,6.8z"/>
						</g>
					</g>
					<g id="g3579">
						<g id="id4">
							<path id="path3582" inkscape:connector-curvature="0" class="st0" d="M283.4,141.8c-26.2,0-48.6,6-71.3,19.1
								c-22.7,13.1-39.1,29.5-52.2,52.2s-19.1,45-19.1,71.3c0,26.3,6,48.6,19.1,71.3c13.1,22.7,29.5,39.1,52.2,52.2
								s45.1,19.1,71.3,19.1c26.3,0,48.6-6,71.3-19.1s39.1-29.5,52.2-52.2c13.1-22.7,19.1-45,19.1-71.3c0-26.2-6-48.5-19.1-71.3
								c-13.1-22.7-29.5-39.1-52.2-52.2C332.1,147.8,309.7,141.8,283.4,141.8z M283.4,377c-17,0-31.5-3.9-46.3-12.4
								c-14.8-8.5-25.3-19.1-33.9-33.9c-8.5-14.8-12.4-29.3-12.4-46.3c0-17,3.9-31.5,12.4-46.3c8.6-14.7,19.1-25.4,33.9-33.9
								c14.8-8.5,29.3-12.4,46.3-12.4c17,0,31.5,3.9,46.3,12.4c14.8,8.5,25.4,19.1,33.9,33.9c8.5,14.8,12.4,29.3,12.4,46.3
								c0,17.1-3.9,31.5-12.4,46.3c-8.5,14.7-19.1,25.3-33.9,33.9C315,373.1,300.5,377,283.4,377z"/>
						</g>
					</g>
					<g id="g3584">
						<g id="id5">
							<path id="path3587" inkscape:connector-curvature="0" class="st0" d="M465.1,136.2c0,6.2-1.4,11.4-4.5,16.7
								c-3.1,5.3-6.9,9.1-12.2,12.2c-5.3,3.1-10.5,4.5-16.7,4.5c-6.1,0-11.3-1.4-16.7-4.5c-5.3-3.1-9.1-6.9-12.2-12.2
								c-3.1-5.3-4.5-10.5-4.5-16.7c0-6.1,1.4-11.3,4.5-16.6c3.1-5.3,6.9-9.2,12.2-12.2c5.3-3.1,10.5-4.5,16.7-4.5
								c6.2,0,11.4,1.4,16.7,4.5c5.3,3.1,9.1,6.9,12.2,12.2C463.7,124.9,465.1,130.1,465.1,136.2z"/>
						</g>
					</g>
				</g>
			</g>
		</g>
	</g>
</g>
</svg>
