<?xml version="1.0" encoding="utf-8"?>
<!-- Generator: Adobe Illustrator 21.0.0, SVG Export Plug-In . SVG Version: 6.00 Build 0)  -->
<svg version="1.1" id="Layer_1" xmlns:ooo="http://xml.openoffice.org/svg/export"
	 xmlns="http://www.w3.org/2000/svg" xmlns:xlink="http://www.w3.org/1999/xlink" x="0px" y="0px" viewBox="0 0 566.9 566.9"
	 style="enable-background:new 0 0 566.9 566.9;" xml:space="preserve">
<style type="text/css">
	.st0{fill:#FFFFFF;}
</style>
<g>
	<g>
		<g>
			<g id="id1">
				<path class="st0" d="M520.1,5.7H46.8C24,5.7,5.7,23.6,5.7,45.6v477.5c0,22.2,18.3,39.9,41.1,40h473.3
					c22.6,0,41.1-17.7,41.1-39.9V45.6C561.2,23.6,542.7,5.7,520.1,5.7z M174.4,472.2H90V220.5h84.4V472.2z M132,186.2h-0.4
					c-28.2,0-46.5-19.3-46.5-43.6c0-24.5,18.7-43.4,47.8-43.4c28.6,0,46.5,18.9,46.9,43.4C179.8,166.9,161.5,186.2,132,186.2z
					 M476.6,472.1h-83.9V337.3c0-33.8-12-56.9-42.4-56.9c-23.5,0-37.2,15.6-43.4,30.8c-2.1,5.2-2.7,12.7-2.7,20.2v140.8h-83.9
					c0,0,1.1-228.1-0.1-251.6h83.9V256c11.3-17.1,31.2-41.5,75.9-41.5c55.2,0,96.6,35.9,96.6,113.2V472.1z"/>
			</g>
		</g>
	</g>
</g>
</svg>
