<?xml version="1.0" encoding="utf-8"?>
<!-- Generator: Adobe Illustrator 21.0.0, SVG Export Plug-In . SVG Version: 6.00 Build 0)  -->
<svg version="1.1" id="Layer_1" xmlns:ooo="http://xml.openoffice.org/svg/export"
	 xmlns="http://www.w3.org/2000/svg" xmlns:xlink="http://www.w3.org/1999/xlink" x="0px" y="0px" viewBox="0 0 566.9 566.9"
	 style="enable-background:new 0 0 566.9 566.9;" xml:space="preserve">
<style type="text/css">
	.st0{fill:#FFFFFF;}
	.st1{fill:#ADDFF4;}
	.st2{fill:#E6F5FB;}
</style>
<g>
	<g id="id2">
		<g id="bg-id2">
		</g>
		<g id="bo-id2">
		</g>
	</g>
</g>
<g>
	<g>
		<g>
			<g id="id1">
				<g>
					<g>
						<g id="id3">
							<path class="st0" d="M440.6,47.6C414.9,18.2,368.3,5.7,308.8,5.7H136.2c-12.2,0-22.5,8.8-24.4,20.9l-71.9,456
								c-1.4,9,5.6,17.1,14.7,17.1h106.6L188,329.9l-0.9,5.3c1.9-12,12.2-20.9,24.3-20.9H262c99.5,0,177.4-40.4,200.2-157.3
								c0.7-3.5,1.3-6.9,1.8-10.1c-2.9-1.5-2.9-1.5,0,0C470.8,103.6,463.9,74.2,440.6,47.6z"/>
						</g>
					</g>
					<g>
						<g id="id4">
							<path class="st0" d="M228.7,131.3c2.9-1.4,6-2.1,9.4-2.1h135.3c16,0,31,1,44.6,3.2c3.9,0.6,7.7,1.4,11.4,2.2
								c3.7,0.8,7.3,1.8,10.8,2.8c1.7,0.5,3.4,1,5.1,1.6c6.7,2.3,13,4.9,18.7,7.9c6.8-43.2-0.1-72.6-23.4-99.2
								c-25.7-29.5-72.3-42-131.8-42H136.2c-12.2,0-22.5,8.8-24.4,20.9l-71.9,456c-1.4,9,5.6,17.1,14.7,17.1h106.6l55.6-352.2
								C217.8,140.1,222.4,134.2,228.7,131.3z"/>
						</g>
					</g>
					<g>
						<g id="id5">
							<path class="st1" d="M462.2,156.9C439.4,273.8,361.5,314.2,262,314.2h-50.7c-12.1,0-22.5,8.8-24.3,20.9l-33.3,211.1
								c-1.3,7.9,4.8,15,12.8,15h89.9c10.6,0,19.7-7.7,21.4-18.3l0.8-4.6l17-107.3l1.1-6c1.7-10.5,10.7-18.2,21.3-18.2h13.4
								c87,0,155.2-35.4,175.2-137.7c8.2-42.7,4-78.4-18-103.5c-6.7-7.6-15-13.9-24.6-19C463.4,150.1,462.8,153.4,462.2,156.9z"/>
						</g>
					</g>
					<g>
						<g id="id6">
							<path class="st2" d="M440.1,137.3c-3.5-1-7.1-1.9-10.7-2.7c-3.7-0.9-7.5-1.6-11.4-2.2c-13.7-2.2-28.6-3.2-44.7-3.2H237.9
								c-3.3,0-6.5,0.7-9.4,2.2c-6.2,3-10.9,8.9-12,16.1l-28.8,182.4l-0.9,5.3c1.9-12,12.2-20.9,24.3-20.9H262
								c99.5,0,177.4-40.4,200.2-157.4c0.7-3.5,1.2-6.8,1.8-10.1c-5.8-3-12-5.7-18.7-7.9C443.5,138.3,441.8,137.8,440.1,137.3z"/>
						</g>
					</g>
				</g>
			</g>
		</g>
	</g>
</g>
</svg>
