<?xml version="1.0" encoding="utf-8"?>
<!-- Generator: Adobe Illustrator 21.0.0, SVG Export Plug-In . SVG Version: 6.00 Build 0)  -->
<svg version="1.1" id="Layer_1" xmlns:ooo="http://xml.openoffice.org/svg/export"
	 xmlns="http://www.w3.org/2000/svg" xmlns:xlink="http://www.w3.org/1999/xlink" x="0px" y="0px" viewBox="0 0 566.9 566.9"
	 style="enable-background:new 0 0 566.9 566.9;" xml:space="preserve">
<style type="text/css">
	.st0{fill:#FFFFFF;}
</style>
<g>
	<g>
		<g>
			<g id="id1">
				<g>
					<g>
						<g id="id3">
							<path class="st0" d="M9.6,5.6C9,5.6,8.4,6.2,8.4,6.9v0.2C7.3,6.9,6.7,6.5,6.1,5.8c-0.4,0.8,0,1.4,0.5,1.8
								C6.3,7.6,6,7.5,5.8,7.4c0,0,0,0,0,0C5.9,8,6.5,8.5,6.9,8.6c-0.4,0-0.7,0.1-1-0.1c0,0,0,0,0,0c0.2,0.6,0.7,0.8,1.3,0.8
								C6.9,9.6,6.5,9.8,5.7,9.8c0,0-0.1,0,0,0.1c0.3,0.3,1,0.5,2.1,0.5c1.7,0,3.1-1.6,3.1-3.5V6.8c0.3-0.1,0.4-0.4,0.5-0.6
								c0,0,0,0,0,0l-0.6,0.2v0c0.2-0.2,0.4-0.4,0.5-0.7c-0.3,0.1-0.5,0.2-0.7,0.3c0,0-0.1,0-0.1,0C10.3,5.8,9.9,5.6,9.6,5.6z"/>
						</g>
					</g>
					<g>
						<g id="id4">
							<path class="st0" d="M393.4,59.5c-64.4,1-115.1,56.6-115.1,120.9V196C163.2,175.5,106.6,144.3,44.2,79
								C7.1,151.2,48.1,211.6,93,244.8c-30.2,0-55.6-3.9-75.1-21.5c-1.9-1-3.9,0-2.9,2c16.6,60.5,73.2,104.3,117,117
								c-40,0-66.3,5.8-94.6-11.7c-2-1-3.9,0-2.9,2c21.5,59.5,64.4,78,126.9,78C130,434,88.1,457.4,9,459.3c-2.9,0-4.8,3.9-1.9,5.8
								c29.3,24.4,101.5,42.9,202.9,42.9c166.8,0,302.4-148.2,302.4-331.5v-9.8c26.4-9.8,41-33.1,48.8-56.6c0-1-1-2-2-2l-55.6,19.5
								c-1,0-2-2-1-2.9c23.4-18.5,41-41.9,48.8-64.3c0,0-1-1-2-1c-26.3,10.7-51.7,21.4-71.2,27.3c-2.9,0.9-6.8,0.9-9.7-1
								C455.9,79,417.9,59.5,393.4,59.5z"/>
						</g>
					</g>
				</g>
			</g>
		</g>
	</g>
</g>
</svg>
