<?xml version="1.0" encoding="utf-8"?>
<!-- Generator: Adobe Illustrator 21.0.0, SVG Export Plug-In . SVG Version: 6.00 Build 0)  -->
<svg version="1.1" id="Layer_1" xmlns:ooo="http://xml.openoffice.org/svg/export"
	 xmlns="http://www.w3.org/2000/svg" xmlns:xlink="http://www.w3.org/1999/xlink" x="0px" y="0px" viewBox="0 0 566.9 566.9"
	 style="enable-background:new 0 0 566.9 566.9;" xml:space="preserve">
<style type="text/css">
	.st0{fill:#FFFFFF;}
</style>
<g>
	<g>
		<g>
			<g id="id1">
				<g>
					<g>
						<g id="id3">
							<path class="st0" d="M9.6,5.6C9,5.6,8.4,6.2,8.4,6.9v0.2C7.3,6.9,6.7,6.5,6.1,5.8c-0.4,0.8,0,1.4,0.5,1.8
								C6.3,7.6,6,7.5,5.8,7.4c0,0,0,0,0,0C5.9,8,6.5,8.5,6.9,8.6c-0.4,0-0.7,0.1-1-0.1c0,0,0,0,0,0c0.2,0.6,0.7,0.8,1.3,0.8
								C6.9,9.6,6.5,9.8,5.7,9.8c0,0-0.1,0,0,0.1c0.3,0.3,1,0.5,2.1,0.5c1.7,0,3.1-1.6,3.1-3.5V6.8c0.3-0.1,0.4-0.4,0.5-0.6
								c0,0,0,0,0,0l-0.6,0.2v0c0.2-0.2,0.4-0.4,0.5-0.7c-0.3,0.1-0.5,0.2-0.7,0.3c0,0-0.1,0-0.1,0C10.3,5.8,9.9,5.6,9.6,5.6z"/>
						</g>
					</g>
					<g>
						<g id="id4">
							<path class="st0" d="M558.3,411c-0.7-1.4-1.3-2.6-1.9-3.6c-9.7-17.3-28.1-38.7-55.2-63.9l-0.6-0.6l-0.3-0.3l-0.3-0.3h-0.3
								c-12.4-11.8-20.2-19.7-23.4-23.7c-6-7.7-7.3-15.5-4.1-23.4c2.3-6,11-18.6,26-37.9c7.9-10.2,14.2-18.4,18.8-24.6
								c33.4-44.3,47.8-72.7,43.4-85l-1.7-2.9c-1.2-1.7-4.2-3.3-9-4.8c-4.8-1.4-11-1.7-18.5-0.7l-83.3,0.6c-1.3-0.5-3.3-0.4-5.8,0.1
								c-2.5,0.6-3.8,0.9-3.8,0.9l-1.4,0.7l-1.1,0.9c-1,0.6-2,1.6-3.2,3c-1.1,1.4-2.1,3.1-2.9,5.1c-9.1,23.3-19.4,45-31,65.1
								c-7.2,12-13.7,22.3-19.7,31.1c-6,8.8-11,15.3-15.1,19.4c-4.1,4.1-7.7,7.5-11,9.9c-3.3,2.5-5.8,3.6-7.5,3.2
								c-1.7-0.4-3.3-0.8-4.9-1.2c-2.7-1.8-4.9-4.1-6.5-7.1c-1.6-3-2.7-6.7-3.3-11.3c-0.6-4.5-0.9-8.4-1-11.7
								c-0.1-3.3,0-7.9,0.1-13.9c0.2-6,0.3-10.1,0.3-12.1c0-7.4,0.1-15.3,0.4-23.9c0.3-8.6,0.5-15.4,0.7-20.4
								c0.2-5,0.3-10.3,0.3-15.9c0-5.6-0.3-9.9-1-13.2c-0.7-3.2-1.7-6.3-3-9.2c-1.3-3-3.3-5.3-6-6.9c-2.6-1.6-5.8-2.9-9.7-3.9
								c-10.2-2.3-23.2-3.6-39.1-3.8c-35.9-0.4-58.9,1.9-69.1,7c-4.1,2.1-7.7,5-11,8.6c-3.5,4.3-4,6.5-1.4,7
								c11.6,1.7,19.8,5.8,24.6,12.4l1.7,3.5c1.4,2.5,2.7,6.9,4.1,13.3c1.3,6.4,2.2,13.4,2.6,21.1c0.9,14.1,0.9,26.1,0,36.2
								c-1,10-1.9,17.9-2.7,23.4c-0.9,5.6-2.2,10.1-3.9,13.6c-1.7,3.5-2.9,5.6-3.5,6.3c-0.6,0.8-1,1.2-1.4,1.4
								c-2.5,1-5.1,1.4-7.8,1.4c-2.7,0-6-1.4-9.8-4.1c-3.9-2.7-7.9-6.4-12-11.1c-4.2-4.7-8.8-11.3-14-19.8
								c-5.2-8.5-10.6-18.5-16.2-30.1l-4.6-8.4c-2.9-5.4-6.8-13.2-11.8-23.6c-5-10.3-9.5-20.3-13.3-30c-1.6-4.1-3.9-7.1-6.9-9.2
								l-1.5-0.9c-1-0.8-2.5-1.6-4.6-2.4c-2.1-0.9-4.3-1.5-6.6-1.9l-79.3,0.6c-8.1,0-13.6,1.8-16.5,5.5l-1.2,1.7
								c-0.6,1-0.9,2.5-0.9,4.6c0,2.1,0.6,4.7,1.7,7.8c11.6,27.2,24.2,53.4,37.8,78.7c13.6,25.3,25.4,45.6,35.4,61
								c10,15.4,20.3,30,30.6,43.7c10.4,13.7,17.3,22.5,20.7,26.3c3.3,3.9,6,6.7,7.9,8.7l7.2,6.9c4.6,4.6,11.4,10.2,20.4,16.6
								c9,6.5,18.9,12.8,29.8,19.1c10.9,6.3,23.6,11.4,38,15.3c14.5,4,28.5,5.6,42.2,4.8h33.3c6.7-0.6,11.8-2.7,15.3-6.3l1.1-1.5
								c0.8-1.1,1.5-2.9,2.2-5.3c0.7-2.4,1-5.1,1-8c-0.2-8.3,0.4-15.8,1.9-22.4c1.4-6.6,3.1-11.7,4.9-15c1.8-3.4,3.9-6.2,6.2-8.5
								c2.3-2.3,3.9-3.7,4.9-4.2c1-0.5,1.7-0.8,2.3-1c4.6-1.5,10.1,0,16.4,4.5c6.3,4.5,12.2,10.1,17.6,16.8
								c5.5,6.7,12.1,14.1,19.8,22.4c7.7,8.3,14.5,14.5,20.3,18.5l5.8,3.5c3.9,2.3,8.9,4.4,15.1,6.3c6.2,1.9,11.5,2.4,16.2,1.4
								l74-1.1c7.3,0,13-1.2,17.1-3.6c4.1-2.4,6.5-5.1,7.3-8c0.8-2.9,0.8-6.2,0.1-9.8C559.6,415,559,412.4,558.3,411z"/>
						</g>
					</g>
				</g>
			</g>
		</g>
	</g>
</g>
</svg>
