<?xml version="1.0" encoding="utf-8"?>
<!-- Generator: Adobe Illustrator 21.0.0, SVG Export Plug-In . SVG Version: 6.00 Build 0)  -->
<svg version="1.1"
	 id="svg3522" xmlns:cc="http://creativecommons.org/ns#" xmlns:dc="http://purl.org/dc/elements/1.1/" xmlns:rdf="http://www.w3.org/1999/02/22-rdf-syntax-ns#" xmlns:svg="http://www.w3.org/2000/svg"
	 xmlns="http://www.w3.org/2000/svg" xmlns:xlink="http://www.w3.org/1999/xlink" x="0px" y="0px" viewBox="0 0 566.9 566.9"
	 style="enable-background:new 0 0 566.9 566.9;" xml:space="preserve">
<style type="text/css">
	.st0{fill:#FFFFFF;}
</style>
<g id="g3562" transform="matrix(3.5075161,0,0,3.5075161,16.67858,20.117816)">
	<g id="svg_1">
		<path id="path3167" class="st0" d="M115.6,0.3l4.3,9.9L131,5l4.5-4.7C128.4,1.9,122,1.9,115.6,0.3z"/>
		<path id="path3165" class="st0" d="M84.5,86.2L77,89l-4.7-8.3l46.9-74.9l3.4-1.1c4.6-1,9.7-2.2,13-4.4
			C128.1,10.3,100.9,57.4,84.5,86.2L84.5,86.2z"/>
		<path id="path3163" class="st0" d="M74.2,85.1l2-2l46.4-78.5l-7-4.4C110,10.7,89.4,44.5,76.2,66.1L69.9,78L74.2,85.1L74.2,85.1z"
			/>
		<path id="path3161" class="st0" d="M36.7,0.3C47,18.5,62.8,44,76.2,66.1v17L73,86.2l-46.1-82C26.9,4.2,36.7,0.3,36.7,0.3z"/>
		<path id="path3159" class="st0" d="M29.1,5.2l7.6-5C28.6,2,25.2,2.1,17,0.3l3.2,3.5C20.2,3.8,29.1,5.2,29.1,5.2z"/>
		<path id="path3157" class="st0" d="M76.2,83.1l-3.5,5.1l-4.7-2C59.1,71,33.2,24.6,17,0.3c3.3,2.4,7.7,3.7,12.8,4.5L76.2,83.1z"/>
		<path id="path3155" class="st0" d="M85.7,149.7l-13.4-6.3l1.2-56l2.8-4.3l8.3,3.2L85.7,149.7z"/>
		<path id="path3153" class="st0" d="M76.2,145.4l-9.5,4.3l1.2-63.5l8.3-3.2V145.4L76.2,145.4z"/>
		<path id="path3151" class="st0" d="M66.7,149.7l9.5-6.9l9.4,6.9c0,0-5.2-1-9.4-1C72.4,148.8,66.7,149.7,66.7,149.7L66.7,149.7z"/>
	</g>
</g>
</svg>
