<?xml version="1.0" encoding="utf-8"?>
<!-- Generator: Adobe Illustrator 16.0.0, SVG Export Plug-In . SVG Version: 6.00 Build 0)  -->
<!DOCTYPE svg PUBLIC "-//W3C//DTD SVG 1.1//EN" "http://www.w3.org/Graphics/SVG/1.1/DTD/svg11.dtd">
<svg version="1.1" id="Layer_1" xmlns="http://www.w3.org/2000/svg" xmlns:xlink="http://www.w3.org/1999/xlink" x="0px" y="0px"
	 width="171.383px" height="41.678px" viewBox="0 0 171.383 41.678" enable-background="new 0 0 171.383 41.678"
	 xml:space="preserve">
<path fill="#6282C1" d="M169.401,41.678H1.983C0.888,41.678,0,40.79,0,39.695V1.982C0,0.887,0.888,0,1.983,0h167.418
	c1.094,0,1.982,0.887,1.982,1.982v37.713C171.383,40.79,170.495,41.678,169.401,41.678"/>
<rect x="-576.85" y="-3540.067" fill="none" width="1440" height="4038.636"/>
<g>
	<path fill="#FFFFFF" d="M49.637,12.426h9.588v1.929h-7.29v5.916h6.735v1.902h-6.735v8.056h-2.298V12.426z"/>
	<path fill="#FFFFFF" d="M69.5,30.229l-0.185-1.611h-0.079c-0.713,1.004-2.086,1.902-3.909,1.902c-2.588,0-3.909-1.823-3.909-3.672
		c0-3.09,2.747-4.78,7.687-4.754v-0.265c0-1.057-0.291-2.958-2.906-2.958c-1.188,0-2.43,0.369-3.328,0.951l-0.528-1.532
		c1.056-0.687,2.588-1.136,4.199-1.136c3.909,0,4.86,2.668,4.86,5.229v4.781c0,1.109,0.053,2.191,0.211,3.063H69.5z M69.157,23.704
		c-2.536-0.053-5.415,0.396-5.415,2.88c0,1.505,1.003,2.218,2.192,2.218c1.664,0,2.721-1.056,3.09-2.139
		c0.08-0.238,0.132-0.502,0.132-0.74V23.704z"/>
	<path fill="#FFFFFF" d="M84.266,29.753c-0.607,0.317-1.955,0.739-3.671,0.739c-3.856,0-6.365-2.614-6.365-6.523
		c0-3.936,2.694-6.788,6.867-6.788c1.374,0,2.588,0.343,3.222,0.66l-0.528,1.796c-0.555-0.316-1.427-0.607-2.694-0.607
		c-2.932,0-4.517,2.166-4.517,4.834c0,2.958,1.902,4.78,4.438,4.78c1.32,0,2.192-0.343,2.853-0.634L84.266,29.753z"/>
	<path fill="#FFFFFF" d="M88.282,24.259c0.053,3.144,2.061,4.438,4.385,4.438c1.664,0,2.667-0.29,3.54-0.66l0.396,1.664
		c-0.819,0.37-2.219,0.792-4.252,0.792c-3.936,0-6.286-2.588-6.286-6.444s2.271-6.894,5.996-6.894c4.173,0,5.283,3.671,5.283,6.021
		c0,0.476-0.053,0.846-0.08,1.083H88.282z M95.097,22.595c0.026-1.479-0.608-3.776-3.223-3.776c-2.351,0-3.381,2.166-3.565,3.776
		H95.097z"/>
	<path fill="#FFFFFF" d="M100.116,30.229c0.053-0.872,0.106-2.166,0.106-3.302V11.476h2.298v8.029h0.053
		c0.819-1.427,2.298-2.351,4.358-2.351c3.169,0,5.415,2.641,5.388,6.523c0,4.569-2.879,6.842-5.732,6.842
		c-1.849,0-3.328-0.714-4.279-2.404h-0.079l-0.105,2.113H100.116z M102.52,25.104c0,0.29,0.053,0.581,0.105,0.845
		c0.449,1.611,1.796,2.721,3.487,2.721c2.43,0,3.883-1.98,3.883-4.912c0-2.563-1.321-4.755-3.804-4.755
		c-1.585,0-3.064,1.083-3.54,2.853c-0.053,0.265-0.132,0.581-0.132,0.951V25.104z"/>
	<path fill="#FFFFFF" d="M126.82,23.73c0,4.729-3.275,6.789-6.366,6.789c-3.46,0-6.127-2.536-6.127-6.577
		c0-4.279,2.8-6.788,6.339-6.788C124.337,17.154,126.82,19.822,126.82,23.73z M116.678,23.863c0,2.8,1.611,4.912,3.883,4.912
		c2.219,0,3.882-2.086,3.882-4.965c0-2.166-1.083-4.913-3.83-4.913S116.678,21.433,116.678,23.863z"/>
	<path fill="#FFFFFF" d="M141.323,23.73c0,4.729-3.275,6.789-6.366,6.789c-3.46,0-6.127-2.536-6.127-6.577
		c0-4.279,2.8-6.788,6.339-6.788C138.839,17.154,141.323,19.822,141.323,23.73z M131.18,23.863c0,2.8,1.611,4.912,3.883,4.912
		c2.219,0,3.882-2.086,3.882-4.965c0-2.166-1.083-4.913-3.83-4.913C132.368,18.897,131.18,21.433,131.18,23.863z"/>
	<path fill="#FFFFFF" d="M146.553,23.309h0.053c0.316-0.449,0.766-1.004,1.137-1.453l3.75-4.411h2.799l-4.939,5.257l5.627,7.527
		h-2.826l-4.41-6.128l-1.189,1.32v4.808h-2.299V11.476h2.299V23.309z"/>
</g>
<rect x="8.175" y="4.329" fill="#FFFFFF" width="33.019" height="33.02"/>
<path fill="#6282C1" d="M31.939,16.76v-2.352c0-1.146,0.764-1.413,1.301-1.413h3.299v-5.04l-4.544-0.019
	c-5.044,0-6.19,3.759-6.19,6.165v2.658h-2.917v3.555v2.328h2.942v14.706h5.882V22.643h4.365l0.212-2.311l0.325-3.572H31.939z"/>
</svg>
